<svg fill="#FF9900" role="img" viewBox="0 0 24 24" xmlns="http://www.w3.org/2000/svg"><title>Amazon Web Services</title><path d="M6.763 10.036c0 .296.032.535.088.71.064.176.144.368.256.576.04.063.056.127.056.183 0 .08-.048.16-.152.24l-.503.335a.383.383 0 0 1-.208.072c-.08 0-.16-.04-.239-.112a2.47 2.47 0 0 1-.287-.375 6.18 6.18 0 0 1-.248-.471c-.622.734-1.405 1.101-2.347 1.101-.67 0-1.205-.191-1.596-.574-.391-.384-.59-.894-.59-1.533 0-.678.239-1.23.726-1.644.487-.415 1.133-.623 1.955-.623.272 0 .551.024.846.064.296.04.6.104.918.176v-.583c0-.607-.127-1.03-.375-1.277-.255-.248-.686-.367-1.3-.367-.28 0-.568.031-.863.103-.295.072-.583.167-.863.279-.127.048-.223.08-.288.096a.505.505 0 0 1-.127.016c-.112 0-.168-.08-.168-.247v-.391c0-.128.016-.224.056-.28a.597.597 0 0 1 .224-.167c.279-.144.614-.264 1.005-.36.391-.096.807-.144 1.245-.144 1.132 0 1.968.263 2.507.79.54.528.807 1.325.807 2.391v3.149zm-3.703 1.568c.263 0 .534-.048.822-.144.287-.096.543-.271.758-.503.12-.144.208-.296.256-.463.048-.167.08-.359.08-.574v-.272c-.231-.056-.479-.104-.742-.136a7.078 7.078 0 0 0-.758-.048c-.542 0-.935.104-1.197.32-.263.215-.39.519-.39.91 0 .37.095.647.295.838.199.191.47.287.815.287h.06zm7.396-5.648c.16 0 .28.024.352.08.07.048.127.16.175.312l1.854 6.104c.048.16.08.263.08.32 0 .144-.072.224-.216.224h-.534c-.168 0-.288-.024-.352-.08-.063-.056-.111-.16-.159-.312l-1.373-5.575-1.373 5.575c-.048.16-.096.264-.16.32-.063.048-.183.08-.351.08h-.535c-.143 0-.215-.08-.215-.223 0-.048.016-.112.032-.176.016-.064.032-.128.048-.16l1.869-6.104c.048-.16.104-.264.175-.312.063-.048.183-.08.343-.08h.598zm5.842 0c.16 0 .28.024.352.08.07.048.127.16.175.312l1.853 6.104c.048.16.08.263.08.32 0 .144-.072.224-.216.224h-.534c-.168 0-.288-.024-.352-.08-.063-.056-.111-.16-.159-.312l-1.373-5.575-1.373 5.575c-.048.16-.096.264-.16.32-.063.048-.183.08-.351.08h-.535c-.143 0-.215-.08-.215-.223 0-.048.016-.112.032-.176.016-.064.032-.128.048-.16l1.869-6.104c.048-.16.104-.264.175-.312.063-.048.183-.08.343-.08h.598zm5.786 2.496c0 .4-.064.774-.191 1.117a2.64 2.64 0 0 1-.542.894c-.232.248-.51.439-.838.574-.327.136-.694.2-1.101.2-.407 0-.774-.064-1.101-.2a2.447 2.447 0 0 1-.838-.574 2.64 2.64 0 0 1-.542-.894 3.323 3.323 0 0 1-.191-1.117c0-.4.064-.774.191-1.117a2.64 2.64 0 0 1 .542-.894c.232-.248.51-.439.838-.574.327-.136.694-.2 1.101-.2.407 0 .774.064 1.101.2.328.136.606.328.838.574.232.247.414.543.542.894.127.35.191.725.191 1.117zm-2.678 1.461c.47 0 .838-.168 1.101-.503.263-.335.391-.79.391-1.365 0-.575-.128-1.03-.391-1.365-.263-.336-.63-.503-1.101-.503-.47 0-.838.168-1.101.503-.263.335-.391.79-.391 1.365 0 .575.128 1.03.391 1.365.263.336.63.503 1.101.503z"/></svg>